<?xml version="1.0" encoding="UTF-8"?>
<svg width="120" height="120" viewBox="0 0 120 120" fill="none" xmlns="http://www.w3.org/2000/svg">
  <circle cx="60" cy="60" r="56" fill="#5FBCC2" />
  <path d="M60 15C35.1472 15 15 35.1472 15 60C15 84.8528 35.1472 105 60 105C84.8528 105 105 84.8528 105 60C105 35.1472 84.8528 15 60 15Z" fill="#5FBCC2"/>
  <path d="M30 60C30 43.4315 43.4315 30 60 30C76.5685 30 90 43.4315 90 60C90 76.5685 76.5685 90 60 90C43.4315 90 30 76.5685 30 60Z" fill="#FFFFFF"/>
  <path d="M45 45C52.1797 45 58 50.8203 58 58C58 65.1797 52.1797 71 45 71C37.8203 71 32 65.1797 32 58C32 50.8203 37.8203 45 45 45Z" fill="#5FBCC2"/>
</svg> 